<svg width="96" height="96" viewBox="0 0 96 96" fill="none" xmlns="http://www.w3.org/2000/svg" role="img" aria-labelledby="title desc">
  <title id="title">uv Python Agent Hooks mark</title>
  <desc id="desc">A hook-shaped command path connecting to uv lettering.</desc>
  <rect width="96" height="96" rx="22" fill="#071013"/>
  <path d="M64 16C51.85 16 42 25.85 42 38V55.5C42 63.51 35.51 70 27.5 70C19.49 70 13 63.51 13 55.5C13 47.49 19.49 41 27.5 41H30" stroke="#67E8F9" stroke-width="8" stroke-linecap="round"/>
  <path d="M64 16H78" stroke="#A78BFA" stroke-width="8" stroke-linecap="round"/>
  <path d="M78 16L72 26" stroke="#A78BFA" stroke-width="8" stroke-linecap="round"/>
  <path d="M34 76C45 79.5 58.2 77.9 67.5 70.25" stroke="#2563EB" stroke-width="5" stroke-linecap="round"/>
  <path d="M54.6 49V60.4C54.6 64.34 57.16 66.8 60.7 66.8C64.24 66.8 66.8 64.34 66.8 60.4V49" stroke="#F8FAFC" stroke-width="4.2" stroke-linecap="round"/>
  <path d="M71.8 49L77.3 66H81.5L87 49" stroke="#F8FAFC" stroke-width="4.2" stroke-linecap="round" stroke-linejoin="round"/>
  <circle cx="27.5" cy="55.5" r="5.5" fill="#67E8F9"/>
</svg>
